<svg width="45" height="82" viewBox="0 0 45 82" fill="none" xmlns="http://www.w3.org/2000/svg">
<path d="M18.3067 62.3754C18.3091 64.8917 18.2728 67.2715 18.324 69.6491C18.384 72.4418 19.4295 73.1354 21.6588 71.9435C25.4579 69.9124 25.4579 69.9124 25.4579 65.0303C25.4579 61.0963 25.4959 57.1617 25.4401 53.229C25.4163 51.5647 26.0328 50.6087 27.3644 50.0357C30.6462 48.6232 33.8937 47.1068 37.1812 45.7127C38.4653 45.1679 39.0274 44.2405 38.9404 42.7104C38.9012 42.0268 38.951 41.3377 38.9298 40.6524C38.8587 38.3377 37.9435 37.5651 36.0507 38.3426C33.799 39.2676 31.5782 40.2911 29.3479 41.282C20.8032 45.0779 12.2602 48.878 3.71574 52.6747C3.45522 52.7906 3.19182 52.9045 2.92193 52.9858C1.14301 53.5198 0.149245 52.7003 0.0211492 50.5898C-0.00648875 50.134 0.00120177 49.6755 0.00120177 49.2181C-0.000106207 44.9177 -0.000346485 40.6174 0.000480832 36.317C0.000961491 33.8578 0.198272 33.4946 2.25069 32.5845C10.8346 28.7773 19.4242 24.9876 28.0107 21.1876C31.022 19.8549 34.0146 18.4635 37.0461 17.194C38.4953 16.5872 39.1538 15.5247 39.1017 13.8005C39.0688 12.7056 39.1731 11.5937 39.0399 10.5177C38.7806 8.42397 37.7789 7.78592 36.0699 8.53105C31.1927 10.6585 26.3212 12.8031 21.4478 14.9421C21.2997 15.0072 21.1579 15.0925 21.0087 15.154C18.5511 16.1699 18.3499 16.4988 18.3389 19.5326C18.3309 21.7466 17.266 23.0441 15.3744 23.1314C14.3636 23.1781 13.5299 22.68 13.4842 21.5184C13.3792 18.8399 13.3484 16.1427 13.5306 13.4752C13.5746 12.8344 14.478 12.0214 15.1372 11.723C22.4014 8.43331 29.694 5.22546 36.9829 2.00745C38.3941 1.38449 39.8085 0.761808 41.2483 0.233847C43.0599 -0.430566 44.1347 0.322252 44.1659 2.47418C44.2459 7.9166 44.2053 13.3612 44.196 18.8047C44.1933 20.3927 43.1337 20.9457 42.0726 21.4165C37.4638 23.4609 32.8454 25.4766 28.2332 27.511C21.2795 30.5789 14.3422 33.6956 7.36587 36.6945C5.72178 37.4012 4.97723 38.5216 5.11855 40.4797C5.18079 41.3437 5.14931 42.2237 5.27957 43.0726C5.50548 44.5469 6.16398 45.0941 7.40721 44.651C9.34259 43.961 11.2426 43.1319 13.1348 42.2945C22.0952 38.3289 31.0456 34.3342 40.0041 30.3639C43.1135 28.9856 44.1969 29.8389 44.2171 33.686C44.2385 37.8031 44.2315 41.9208 44.2183 46.038C44.2097 48.7028 43.9227 49.133 41.7766 50.0758C38.7624 51.4005 35.752 52.7364 32.7454 54.0834C31.1758 54.7863 30.7519 55.4795 30.7495 57.3638C30.7447 61.5268 30.7026 65.6912 30.7841 69.8523C30.8326 72.3353 30.0035 73.9697 28.0114 75.0578C24.4113 77.0241 20.882 79.1579 17.3211 81.2173C17.036 81.382 16.7387 81.521 16.4415 81.6544C14.4712 82.5382 13.2237 81.7164 13.2066 79.3103C13.1473 70.9395 13.1485 62.5682 13.1754 54.1971C13.1816 52.1987 14.4179 50.9214 16.1819 50.8685C17.0704 50.8418 17.7647 51.2797 18.0317 52.2615C18.2177 52.946 18.2865 53.6941 18.2949 54.4154C18.3247 57.0228 18.3067 59.6305 18.3067 62.3754Z" fill="#020202"/>
</svg>
